# xmcd CD database file
#
# Track frame offsets:
#	180
#	13614
#	28840
#	52772
#	69124
#	80388
#	93663
#	108629
#	120637
#	133070
#	148054
#	149169
#	162683
#	177897
#	201940
#	218271
#	229583
#	242635
#	257541
#	269676
#	282134
#
# Disc length: 3961 seconds
#
# Revision: 0
# Processed by: cddbd v1.5.1PL2 Copyright (c) Steve Scherf et al.
# Submitted via: CDex 1.51
#
DISCID=350f7715
DTITLE=Antonio Carlos Jobim - Bossa Novas
DYEAR=2000
DGENRE=Jazz
TTITLE0=The girl from Ipanema
TTITLE1=So Danco Samba
TTITLE2=Once I loved
TTITLE3=Dindi
TTITLE4=One Note Samba
TTITLE5=Meditation
TTITLE6=How intensive
TTITLE7=Triste
TTITLE8=Corcovado
TTITLE9=Wave
TTITLE10=The Girl of Ipanema BG
TTITLE11=So DAnco Samba BG
TTITLE12=Once I loved BG
TTITLE13=Dindi BG
TTITLE14=One Note Samba BG
TTITLE15=Meditaion BG
TTITLE16=How Intensive BG
TTITLE17=Triste BG
TTITLE18=Corcovado BG
TTITLE19=Wave
TTITLE20=Tuning Note
EXTD=YEAR: 2000
EXTT0=
EXTT1=
EXTT2=
EXTT3=
EXTT4=
EXTT5=
EXTT6=
EXTT7=
EXTT8=
EXTT9=
EXTT10=
EXTT11=
EXTT12=
EXTT13=
EXTT14=
EXTT15=
EXTT16=
EXTT17=
EXTT18=
EXTT19=
EXTT20=
PLAYORDER=
